<svg class="chestSvg" width="640" height="480" xmlns="http://www.w3.org/2000/svg" xmlns:svg="http://www.w3.org/2000/svg">
 <!-- Created with SVG-edit - https://github.com/SVG-Edit/svgedit-->
 <defs>
  <linearGradient id="svg_20">
   <stop offset="0" stop-color="#000000"/>
   <stop offset="0.42578" stop-color="#ffffff"/>
  </linearGradient>
 </defs>
 <g class="layer">
  <title>Layer 1</title>
  <ellipse cx="219.5" cy="171.5" fill="#f4ebeb" id="svg_3" rx="44" ry="0" stroke="#000000" stroke-width="5"/>
  <path d="m232.28695,203.8705l10.01484,-32.92079l10.01484,32.92079l-5.00742,0l0,33.0792l-10.01484,0l0,-33.0792l-5.00742,0z" fill="#ff0000" id="svg_1" stroke="#000000" stroke-width="5" transform="rotate(-90.5102 242.302 203.95)"/>
  <text fill="#000000" font-family="serif" font-size="24" id="svg_7" stroke="#000000" stroke-width="0" text-anchor="middle" transform="matrix(0.607843 0 0 0.540556 142 132.965)" x="292.01613" xml:space="preserve" y="110.94444">Dry cough</text>
  <rect fill="#ffffff" height="0" id="svg_9" stroke="#000000" stroke-width="5" width="1" x="303.5" y="221.5"/>
  <rect fill="#f7f78a" height="7" id="svg_15" stroke="#d13434" stroke-opacity="0" stroke-width="5" width="0" x="274.5" y="337.5"/>
  <rect fill="#f7f138" height="68" id="svg_18" stroke="#d13434" stroke-opacity="0" stroke-width="5" width="195.000018" x="283.5" y="172.5"/>
  <rect fill="url(#svg_20)" fill-opacity="0.46" height="1" id="svg_19" stroke="#d13434" stroke-opacity="0" stroke-width="5" width="0" x="125.5" y="107.5"/>
  <text fill="#000000" font-family="Helvetica" font-size="24" id="svg_21" stroke="#000000" stroke-width="0" text-anchor="middle" transform="matrix(0.711208 0 0 0.781818 159.881 50.6909)" x="309.5" xml:space="preserve" y="180.5">Shortness of breath</text>
  <text fill="#000000" font-family="Helvetica" font-size="24" id="svg_22" stroke="#000000" stroke-width="0" text-anchor="middle" transform="matrix(0.683147 0 0 0.737516 155.08 57.2342)" x="315.33517" xml:space="preserve" y="207.08667">Difficulty breathing</text>
  <text fill="#000000" font-family="Helvetica" font-size="24" id="svg_23" stroke="#000000" stroke-width="0" text-anchor="middle" transform="matrix(0.651507 0 0 0.781818 147.065 57.5454)" x="304.57843" xml:space="preserve" y="220.33721">Pneumonia</text>
 </g>
</svg>