<svg width="640" height="480" xmlns="http://www.w3.org/2000/svg" xmlns:svg="http://www.w3.org/2000/svg">
 <!-- Created with SVG-edit - https://github.com/SVG-Edit/svgedit-->
 <defs>
  <linearGradient id="svg_20">
   <stop offset="0" stop-color="#000000"/>
   <stop offset="0.42578" stop-color="#ffffff"/>
  </linearGradient>
 </defs>
 <g class="layer">
  <title>Layer 1</title>
  <ellipse cx="219.5" cy="171.5" fill="#f4ebeb" id="svg_3" rx="44" ry="0" stroke="#000000" stroke-width="5"/>
  <rect fill="#ffffff" height="0" id="svg_9" stroke="#000000" stroke-width="5" width="1" x="303.5" y="221.5"/>
  <rect fill="#f7f78a" height="7" id="svg_15" stroke="#d13434" stroke-opacity="0" stroke-width="5" width="0" x="274.5" y="337.5"/>
  <rect fill="#f7f138" height="52.000001" id="svg_18" stroke="#d13434" stroke-opacity="0" stroke-width="5" width="142.000016" x="58.5" y="194.5"/>
  <rect fill="url(#svg_20)" fill-opacity="0.46" height="1" id="svg_19" stroke="#d13434" stroke-opacity="0" stroke-width="5" width="0" x="125.5" y="107.5"/>
  <text fill="#000000" font-family="Helvetica" font-size="24" id="svg_21" stroke="#000000" stroke-width="0" style="cursor: move;" text-anchor="middle" transform="matrix(0.711208 0 0 0.781818 159.881 50.6909)" x="-47.638877" xml:space="preserve" y="204.802332">Fever</text>
  <text fill="#000000" font-family="Helvetica" font-size="24" id="svg_22" stroke="#000000" stroke-width="0" text-anchor="middle" transform="matrix(0.548736 0 0 0.737516 137.998 56.2342)" x="-15.486635" xml:space="preserve" y="243.69604">More than 98 degree F</text>
  <path d="m259.409088,306.740021c-15.503421,0 -28.071412,-1.047683 -28.071412,-2.34004l0,-81.319922c0,-1.292363 -12.568003,-2.34004 -28.071424,-2.34004l0,0c15.503421,0 28.071424,-1.047677 28.071424,-2.34004l0,-81.319922l0,0c0,-1.292369 12.567991,-2.340046 28.071412,-2.340046" fill="#ff0000" id="svg_16" stroke="#fcf4f4" stroke-width="5"/>
 </g>
</svg>